<mxfile host="app.diagrams.net" agent="Mozilla/5.0 (Windows NT 10.0; Win64; x64) AppleWebKit/537.36 (KHTML, like Gecko) Chrome/130.0.0.0 Safari/537.36" version="24.8.6">
  <diagram name="Page-1" id="HX-n5RwU4yS9j-6OuBTY">
    <mxGraphModel dx="1006" dy="449" grid="1" gridSize="10" guides="1" tooltips="1" connect="1" arrows="1" fold="1" page="1" pageScale="1" pageWidth="850" pageHeight="1100" math="0" shadow="0">
      <root>
        <mxCell id="0" />
        <mxCell id="1" parent="0" />
        <mxCell id="Q2nsGRmkFAV52NvcU29X-1" value="RawHits" style="rounded=0;whiteSpace=wrap;html=1;fillColor=#4DB6AC;" vertex="1" parent="1">
          <mxGeometry x="10" y="40" width="70" height="30" as="geometry" />
        </mxCell>
        <mxCell id="Q2nsGRmkFAV52NvcU29X-2" value="Hit Processing Algorithm" style="rounded=1;whiteSpace=wrap;html=1;fillColor=#FF8A65;" vertex="1" parent="1">
          <mxGeometry x="110" y="25" width="120" height="60" as="geometry" />
        </mxCell>
        <mxCell id="Q2nsGRmkFAV52NvcU29X-3" value="HitClusters" style="rounded=0;whiteSpace=wrap;html=1;fillColor=#4DB6AC;" vertex="1" parent="1">
          <mxGeometry x="260" y="40" width="90" height="30" as="geometry" />
        </mxCell>
        <mxCell id="Q2nsGRmkFAV52NvcU29X-5" value="Track Finding&lt;div&gt;Algorithm&lt;/div&gt;" style="rounded=1;whiteSpace=wrap;html=1;fillColor=#FF8A65;" vertex="1" parent="1">
          <mxGeometry x="370" y="25" width="100" height="60" as="geometry" />
        </mxCell>
        <mxCell id="Q2nsGRmkFAV52NvcU29X-6" value="Candidates" style="rounded=0;whiteSpace=wrap;html=1;fillColor=#4DB6AC;" vertex="1" parent="1">
          <mxGeometry x="500" y="40" width="80" height="30" as="geometry" />
        </mxCell>
        <mxCell id="Q2nsGRmkFAV52NvcU29X-8" value="Track Fitting&lt;div&gt;Algorithm&lt;/div&gt;" style="rounded=1;whiteSpace=wrap;html=1;fillColor=#FF8A65;" vertex="1" parent="1">
          <mxGeometry x="610" y="25" width="120" height="60" as="geometry" />
        </mxCell>
        <mxCell id="Q2nsGRmkFAV52NvcU29X-9" value="Tracks" style="rounded=0;whiteSpace=wrap;html=1;fillColor=#4DB6AC;" vertex="1" parent="1">
          <mxGeometry x="760" y="40" width="70" height="30" as="geometry" />
        </mxCell>
        <mxCell id="Q2nsGRmkFAV52NvcU29X-17" value="" style="endArrow=classic;html=1;rounded=0;exitX=1;exitY=0.5;exitDx=0;exitDy=0;entryX=0;entryY=0.5;entryDx=0;entryDy=0;" edge="1" parent="1" source="Q2nsGRmkFAV52NvcU29X-1" target="Q2nsGRmkFAV52NvcU29X-2">
          <mxGeometry width="50" height="50" relative="1" as="geometry">
            <mxPoint x="400" y="430" as="sourcePoint" />
            <mxPoint x="450" y="380" as="targetPoint" />
          </mxGeometry>
        </mxCell>
        <mxCell id="Q2nsGRmkFAV52NvcU29X-18" value="" style="endArrow=classic;html=1;rounded=0;exitX=1;exitY=0.5;exitDx=0;exitDy=0;entryX=0;entryY=0.5;entryDx=0;entryDy=0;" edge="1" parent="1">
          <mxGeometry width="50" height="50" relative="1" as="geometry">
            <mxPoint x="230" y="54.5" as="sourcePoint" />
            <mxPoint x="260" y="54.5" as="targetPoint" />
          </mxGeometry>
        </mxCell>
        <mxCell id="Q2nsGRmkFAV52NvcU29X-19" value="" style="endArrow=classic;html=1;rounded=0;exitX=1;exitY=0.5;exitDx=0;exitDy=0;entryX=0;entryY=0.5;entryDx=0;entryDy=0;" edge="1" parent="1" source="Q2nsGRmkFAV52NvcU29X-3" target="Q2nsGRmkFAV52NvcU29X-5">
          <mxGeometry width="50" height="50" relative="1" as="geometry">
            <mxPoint x="240" y="64.5" as="sourcePoint" />
            <mxPoint x="270" y="64.5" as="targetPoint" />
          </mxGeometry>
        </mxCell>
        <mxCell id="Q2nsGRmkFAV52NvcU29X-20" value="" style="endArrow=classic;html=1;rounded=0;exitX=1;exitY=0.5;exitDx=0;exitDy=0;entryX=0;entryY=0.5;entryDx=0;entryDy=0;" edge="1" parent="1" source="Q2nsGRmkFAV52NvcU29X-5" target="Q2nsGRmkFAV52NvcU29X-6">
          <mxGeometry width="50" height="50" relative="1" as="geometry">
            <mxPoint x="250" y="74.5" as="sourcePoint" />
            <mxPoint x="280" y="74.5" as="targetPoint" />
          </mxGeometry>
        </mxCell>
        <mxCell id="Q2nsGRmkFAV52NvcU29X-21" value="" style="endArrow=classic;html=1;rounded=0;exitX=1;exitY=0.5;exitDx=0;exitDy=0;entryX=0;entryY=0.5;entryDx=0;entryDy=0;" edge="1" parent="1" source="Q2nsGRmkFAV52NvcU29X-6" target="Q2nsGRmkFAV52NvcU29X-8">
          <mxGeometry width="50" height="50" relative="1" as="geometry">
            <mxPoint x="260" y="84.5" as="sourcePoint" />
            <mxPoint x="290" y="84.5" as="targetPoint" />
          </mxGeometry>
        </mxCell>
        <mxCell id="Q2nsGRmkFAV52NvcU29X-22" value="" style="endArrow=classic;html=1;rounded=0;exitX=1;exitY=0.5;exitDx=0;exitDy=0;entryX=0;entryY=0.5;entryDx=0;entryDy=0;" edge="1" parent="1" source="Q2nsGRmkFAV52NvcU29X-8" target="Q2nsGRmkFAV52NvcU29X-9">
          <mxGeometry width="50" height="50" relative="1" as="geometry">
            <mxPoint x="270" y="94.5" as="sourcePoint" />
            <mxPoint x="300" y="94.5" as="targetPoint" />
          </mxGeometry>
        </mxCell>
      </root>
    </mxGraphModel>
  </diagram>
</mxfile>
